<svg width="25" height="25" viewBox="0 0 50 50" fill="none" xmlns="http://www.w3.org/2000/svg">
<path fill-rule="evenodd" clip-rule="evenodd" d="M17.7732 2.08334C11.5076 2.08334 6.65981 7.57482 7.43695 13.792L11.0182 42.4419C11.4091 45.5696 14.0679 47.9167 17.2199 47.9167H32.78C35.9321 47.9167 38.5908 45.5696 38.9819 42.4419L42.5631 13.792C43.3402 7.57482 38.4925 2.08334 32.2269 2.08334H17.7732ZM11.8781 10.4167C12.7305 8.01147 15.0245 6.25001 17.7732 6.25001H32.2269C34.9756 6.25001 37.2694 8.01147 38.1219 10.4167H11.8781ZM11.735 14.5833L15.1527 41.925C15.283 42.9677 16.1692 43.75 17.2199 43.75H32.78C33.8308 43.75 34.7171 42.9677 34.8473 41.925L38.265 14.5833H11.735Z" fill="#64FFDA" stroke="#64FFDA"/>
<path d="M31.2542 22.9125C30.4404 22.099 29.1215 22.099 28.3079 22.9125L25 26.2204L21.7085 22.9288C20.895 22.1152 19.5758 22.1152 18.7622 22.9288C17.9486 23.7425 17.9486 25.0615 18.7622 25.8752L22.0537 29.1667L18.75 32.4704C17.9364 33.284 17.9364 34.6031 18.75 35.4167C19.5636 36.2302 20.8827 36.2302 21.6962 35.4167L25 32.1129L28.3079 35.4206C29.1215 36.2344 30.4404 36.2344 31.2542 35.4206C32.0677 34.6071 32.0677 33.2879 31.2542 32.4744L27.9462 29.1667L31.2542 25.859C32.0677 25.0452 32.0677 23.7263 31.2542 22.9125Z" fill="#64FFDA" stroke="#64FFDA" stroke-width="0.5"/>
</svg>
