          <svg
            width="25"
            height="25"
            viewBox="0 0 52 52"
            fill="none"
            xmlns="http://www.w3.org/2000/svg"
          >
            <path
              d="M24.6858 26.0083H6.59224M6.07939 28.5949L3.09009 38.3334C1.45287 43.667 0.634261 46.3338 1.22173 47.9759C1.73188 49.4022 2.82759 50.4834 4.17964 50.8951C5.73656 51.3688 8.08811 50.2147 12.7912 47.9068L42.9424 33.1095C47.5331 30.8564 49.8284 29.7302 50.5377 28.1653C51.1541 26.8058 51.1541 25.2104 50.5377 23.8509C49.8284 22.2863 47.5331 21.1598 42.9424 18.9068L12.7392 4.08421C8.05027 1.78307 5.70583 0.632477 4.15046 1.10448C2.79969 1.51437 1.70409 2.59274 1.19216 4.01626C0.602665 5.65543 1.41253 8.31647 3.03228 13.6386L6.08519 23.6698C6.36337 24.5839 6.50248 25.041 6.55738 25.5083C6.60611 25.9232 6.6056 26.3431 6.55592 26.7578C6.4999 27.225 6.35974 27.6815 6.07939 28.5949Z"
              stroke="rgb(80, 255, 255)"
              stroke-width="2"
              stroke-linecap="round"
              stroke-linejoin="round"
            />
          </svg>